<svg viewBox="0 0 238.924 252.604" fill="none" stroke-linecap="square" stroke-miterlimit="10" xmlns="http://www.w3.org/2000/svg"><clipPath id="a"><path d="M0 0h238.924v252.604H0V0z"/></clipPath><g clip-path="url(#a)"><path d="M0 0h238.924v252.604H0z"/><defs><linearGradient id="b" gradientUnits="userSpaceOnUse" gradientTransform="scale(7.73723)" spreadMethod="pad" x1="11.358" y1="16.274" x2="16.829" y2="21.745"><stop offset="0" stop-color="red"/><stop offset="1" stop-color="#ff0"/></linearGradient></defs><path fill="url(#b)" d="M109.045 125.915c0-11.69 9.476-21.165 21.165-21.165a21.165 21.165 0 0 1 21.166 21.165c0 11.69-9.476 21.166-21.166 21.166s-21.165-9.477-21.165-21.166zm12.075 0a9.09 9.09 0 1 0 9.09-9.09 9.09 9.09 0 0 0-9.09 9.09z" fill-rule="evenodd"/><defs><linearGradient id="c" gradientUnits="userSpaceOnUse" gradientTransform="rotate(-104.996) scale(16.58471)" spreadMethod="pad" x1="-20.693" y1="5.419" x2="-9.365" y2="16.746"><stop offset="0" stop-color="red"/><stop offset="1" stop-color="#ff0"/></linearGradient></defs><path fill="url(#c)" d="M154.361 218.406c-46.547 12.156-94.875-12.174-112.833-56.805-17.959-44.63.05-95.653 42.044-119.124C125.566 19.006 178.46 30.4 207.065 69.082l-11.355 8.397C171.33 44.513 126.252 34.8 90.462 54.804c-35.79 20.004-51.138 63.488-35.833 101.525 15.305 38.037 56.494 58.773 96.164 48.413z" fill-rule="evenodd"/><path fill="#fff" d="M131.402 36.952c0-6.21 5.018-11.243 11.208-11.243a11.19 11.19 0 0 1 7.925 3.293 11.261 11.261 0 0 1 3.283 7.95c0 6.21-5.018 11.243-11.208 11.243s-11.208-5.034-11.208-11.243z" fill-rule="evenodd"/><path stroke="#fdcd2f" stroke-width="8" stroke-linejoin="round" stroke-linecap="butt" d="M131.402 36.952c0-6.21 5.018-11.243 11.208-11.243a11.19 11.19 0 0 1 7.925 3.293 11.261 11.261 0 0 1 3.283 7.95c0 6.21-5.018 11.243-11.208 11.243s-11.208-5.034-11.208-11.243z"/><defs><linearGradient id="d" gradientUnits="userSpaceOnUse" gradientTransform="rotate(-75.015) scale(13.50826)" spreadMethod="pad" x1="-15.739" y1="10.313" x2="-6.512" y2="19.54"><stop offset="0" stop-color="red"/><stop offset="1" stop-color="#ff0"/></linearGradient></defs><path fill="url(#d)" d="M146.446 195.89c-31.211 7.243-63.446-7.061-79.017-35.064-15.57-28.003-10.712-62.933 11.91-85.623 22.622-22.69 57.537-27.654 85.587-12.168l-7.563 13.699c-21.94-12.113-49.249-8.23-66.943 9.517-17.694 17.747-21.494 45.068-9.315 66.97 12.179 21.903 37.392 33.091 61.804 27.426z" fill-rule="evenodd"/><path fill="#fff" d="M138.201 186.747c0-6.21 5.018-11.243 11.208-11.243a11.19 11.19 0 0 1 7.925 3.293 11.261 11.261 0 0 1 3.282 7.95c0 6.21-5.017 11.243-11.207 11.243s-11.208-5.034-11.208-11.243z" fill-rule="evenodd"/><path stroke="#fd621f" stroke-width="8" stroke-linejoin="round" stroke-linecap="butt" d="M138.201 186.747c0-6.21 5.018-11.243 11.208-11.243a11.19 11.19 0 0 1 7.925 3.293 11.261 11.261 0 0 1 3.282 7.95c0 6.21-5.017 11.243-11.207 11.243s-11.208-5.034-11.208-11.243z"/><defs><linearGradient id="e" gradientUnits="userSpaceOnUse" gradientTransform="rotate(-105.002) scale(18.96789)" spreadMethod="pad" x1="-21.144" y1="4.784" x2="-8.189" y2="17.739"><stop offset="0" stop-color="red"/><stop offset="1" stop-color="#ff0"/></linearGradient></defs><path fill="url(#e)" d="M197.895 229.903c-42.385 27.593-97.276 26.699-138.74-2.26-41.464-28.96-61.201-80.187-49.888-129.48C20.581 48.868 60.681 11.374 110.623 3.394c49.942-7.98 99.73 15.152 125.84 58.466l-14.048 8.468c-22.658-37.588-65.864-57.661-109.203-50.736-43.34 6.925-78.14 39.462-87.957 82.239-9.818 42.777 7.31 87.232 43.292 112.363 35.983 25.13 83.617 25.906 120.399 1.961z" fill-rule="evenodd"/><path fill="#fff" d="M203.449 46.284c0-6.21 5.018-11.243 11.207-11.243a11.19 11.19 0 0 1 7.925 3.293 11.261 11.261 0 0 1 3.283 7.95c0 6.21-5.018 11.243-11.208 11.243s-11.207-5.034-11.207-11.243z" fill-rule="evenodd"/><path stroke="#fdcd2f" stroke-width="8" stroke-linejoin="round" stroke-linecap="butt" d="M203.449 46.284c0-6.21 5.018-11.243 11.207-11.243a11.19 11.19 0 0 1 7.925 3.293 11.261 11.261 0 0 1 3.283 7.95c0 6.21-5.018 11.243-11.208 11.243s-11.207-5.034-11.207-11.243z"/><path fill="#fff" d="M4.577 103.54c0-6.209 5.018-11.243 11.208-11.243a11.19 11.19 0 0 1 7.925 3.293 11.261 11.261 0 0 1 3.283 7.95c0 6.21-5.018 11.243-11.208 11.243S4.577 109.75 4.577 103.54z" fill-rule="evenodd"/><path stroke="#fc441d" stroke-width="8" stroke-linejoin="round" stroke-linecap="butt" d="M4.577 103.54c0-6.209 5.018-11.243 11.208-11.243a11.19 11.19 0 0 1 7.925 3.293 11.261 11.261 0 0 1 3.283 7.95c0 6.21-5.018 11.243-11.208 11.243S4.577 109.75 4.577 103.54z"/><path fill="#fff" d="M184.33 220.369c0-6.21 5.018-11.243 11.208-11.243a11.19 11.19 0 0 1 7.925 3.293 11.261 11.261 0 0 1 3.283 7.95c0 6.21-5.018 11.243-11.208 11.243s-11.207-5.034-11.207-11.243z" fill-rule="evenodd"/><path stroke="#fc521e" stroke-width="8" stroke-linejoin="round" stroke-linecap="butt" d="M184.33 220.369c0-6.21 5.018-11.243 11.208-11.243a11.19 11.19 0 0 1 7.925 3.293 11.261 11.261 0 0 1 3.283 7.95c0 6.21-5.018 11.243-11.208 11.243s-11.207-5.034-11.207-11.243z"/><defs><linearGradient id="f" gradientUnits="userSpaceOnUse" gradientTransform="scale(9.44084)" spreadMethod="pad" x1="9.072" y1="18.058" x2="18.512" y2="18.058"><stop offset="0" stop-color="red"/><stop offset="1" stop-color="#ff0"/></linearGradient></defs><path fill="url(#f)" d="M85.643 125.918c0-24.612 19.952-44.564 44.565-44.564a44.565 44.565 0 0 1 44.564 44.564c0 24.613-19.952 44.565-44.564 44.565-24.613 0-44.565-19.952-44.565-44.565zm13.948 0c0 16.91 13.707 30.617 30.617 30.617 16.909 0 30.616-13.707 30.616-30.617 0-16.909-13.707-30.616-30.616-30.616-16.91 0-30.617 13.707-30.617 30.616z" fill-rule="evenodd"/><path fill="#fff" d="M83.488 135.851c0-6.21 5.018-11.243 11.208-11.243a11.19 11.19 0 0 1 7.925 3.293 11.261 11.261 0 0 1 3.282 7.95c0 6.21-5.018 11.243-11.207 11.243-6.19 0-11.208-5.034-11.208-11.243z" fill-rule="evenodd"/><path stroke="#fc181b" stroke-width="8" stroke-linejoin="round" stroke-linecap="butt" d="M83.488 135.851c0-6.21 5.018-11.243 11.208-11.243a11.19 11.19 0 0 1 7.925 3.293 11.261 11.261 0 0 1 3.282 7.95c0 6.21-5.018 11.243-11.207 11.243-6.19 0-11.208-5.034-11.208-11.243z"/></g></svg>