<svg viewBox="0 0 518.373 251.139" fill="none" stroke-linecap="square" stroke-miterlimit="10" xmlns="http://www.w3.org/2000/svg"><clipPath id="a"><path d="M0 0h518.373v251.14H0V0z"/></clipPath><g clip-path="url(#a)"><path d="M0 0h518.373v251.14H0z"/><path d="M200.317 66.95h341.04v136.819h-341.04z"/><path fill="#000" d="M269.63 99.116v2.594h-7.235v-2.594q0-1.438-1.03-2.453-1.016-1.031-2.454-1.031h-42.875q-1.422 0-2.453 1.03-1.031 1.016-1.031 2.454v42.875q0 1.422 1.03 2.453 1.032 1.031 2.454 1.031h42.875q1.438 0 2.453-1.03 1.031-1.032 1.031-2.454v-15.906h-15.89v-7.313h23.125v23.219q0 4.469-3.125 7.594t-7.594 3.125h-42.875q-4.469 0-7.594-3.125t-3.125-7.594V99.116q0-4.469 3.125-7.594t7.594-3.125h42.875q4.469 0 7.594 3.125t3.125 7.594zm73.97-3.484h-53.422q-1.422 0-2.453 1.03-1.031 1.016-1.031 2.454v42.875q0 1.422 1.031 2.453t2.453 1.031H343.6v7.235h-53.422q-4.468 0-7.593-3.125t-3.125-7.594V99.116q0-4.469 3.125-7.594t7.593-3.125H343.6v7.235zm20.193-7.235h42.875q4.47 0 7.594 3.125 3.125 3.125 3.125 7.594v53.594h-7.234v-23.5h-49.844v23.5h-7.234V99.116q0-4.469 3.125-7.594t7.593-3.125zm-3.484 33.578h49.844V99.116q0-1.438-1.031-2.453-1.032-1.031-2.454-1.031h-42.875q-1.437 0-2.468 1.03-1.016 1.016-1.016 2.454v22.86zm78.163-33.578h42.875q4.468 0 7.593 3.125t3.125 7.594v53.594h-7.234v-23.5h-49.844v23.5h-7.234V99.116q0-4.469 3.125-7.594t7.594-3.125zm-3.485 33.578h49.844V99.116q0-1.438-1.031-2.453-1.031-1.031-2.453-1.031h-42.875q-1.438 0-2.469 1.03-1.016 1.016-1.016 2.454v22.86zm67.35 30.735V88.397h7.235v64.313h-7.235z"/><defs><linearGradient id="b" gradientUnits="userSpaceOnUse" gradientTransform="scale(7.73723)" spreadMethod="pad" x1="11.358" y1="16.274" x2="16.829" y2="21.745"><stop offset="0" stop-color="red"/><stop offset="1" stop-color="#ff0"/></linearGradient></defs><path fill="url(#b)" d="M109.045 125.915c0-11.69 9.476-21.165 21.165-21.165a21.165 21.165 0 0 1 21.166 21.165c0 11.69-9.476 21.166-21.166 21.166s-21.165-9.477-21.165-21.166zm12.075 0a9.09 9.09 0 1 0 9.09-9.09 9.09 9.09 0 0 0-9.09 9.09z" fill-rule="evenodd"/><defs><linearGradient id="c" gradientUnits="userSpaceOnUse" gradientTransform="rotate(-104.996) scale(16.58471)" spreadMethod="pad" x1="-20.693" y1="5.419" x2="-9.365" y2="16.746"><stop offset="0" stop-color="red"/><stop offset="1" stop-color="#ff0"/></linearGradient></defs><path fill="url(#c)" d="M154.361 218.406c-46.547 12.156-94.875-12.174-112.833-56.805-17.959-44.63.05-95.653 42.044-119.124C125.566 19.006 178.46 30.4 207.065 69.082l-11.355 8.397C171.33 44.513 126.252 34.8 90.462 54.804c-35.79 20.004-51.138 63.488-35.833 101.525 15.305 38.037 56.494 58.773 96.164 48.413z" fill-rule="evenodd"/><path fill="#fff" d="M131.402 36.952c0-6.21 5.018-11.243 11.208-11.243a11.19 11.19 0 0 1 7.925 3.293 11.261 11.261 0 0 1 3.283 7.95c0 6.21-5.018 11.243-11.208 11.243s-11.208-5.034-11.208-11.243z" fill-rule="evenodd"/><path stroke="#fdcd2f" stroke-width="8" stroke-linejoin="round" stroke-linecap="butt" d="M131.402 36.952c0-6.21 5.018-11.243 11.208-11.243a11.19 11.19 0 0 1 7.925 3.293 11.261 11.261 0 0 1 3.283 7.95c0 6.21-5.018 11.243-11.208 11.243s-11.208-5.034-11.208-11.243z"/><defs><linearGradient id="d" gradientUnits="userSpaceOnUse" gradientTransform="rotate(-75.015) scale(13.50826)" spreadMethod="pad" x1="-15.739" y1="10.313" x2="-6.512" y2="19.54"><stop offset="0" stop-color="red"/><stop offset="1" stop-color="#ff0"/></linearGradient></defs><path fill="url(#d)" d="M146.446 195.89c-31.211 7.243-63.446-7.061-79.017-35.064-15.57-28.003-10.712-62.933 11.91-85.623 22.622-22.69 57.537-27.654 85.587-12.168l-7.563 13.699c-21.94-12.113-49.249-8.23-66.943 9.517-17.694 17.747-21.494 45.068-9.315 66.97 12.179 21.903 37.392 33.091 61.804 27.426z" fill-rule="evenodd"/><path fill="#fff" d="M138.201 186.747c0-6.21 5.018-11.243 11.208-11.243a11.19 11.19 0 0 1 7.925 3.293 11.261 11.261 0 0 1 3.282 7.95c0 6.21-5.017 11.243-11.207 11.243s-11.208-5.034-11.208-11.243z" fill-rule="evenodd"/><path stroke="#fd621f" stroke-width="8" stroke-linejoin="round" stroke-linecap="butt" d="M138.201 186.747c0-6.21 5.018-11.243 11.208-11.243a11.19 11.19 0 0 1 7.925 3.293 11.261 11.261 0 0 1 3.282 7.95c0 6.21-5.017 11.243-11.207 11.243s-11.208-5.034-11.208-11.243z"/><defs><linearGradient id="e" gradientUnits="userSpaceOnUse" gradientTransform="rotate(-105.002) scale(18.96789)" spreadMethod="pad" x1="-21.144" y1="4.784" x2="-8.189" y2="17.739"><stop offset="0" stop-color="red"/><stop offset="1" stop-color="#ff0"/></linearGradient></defs><path fill="url(#e)" d="M197.895 229.903c-42.385 27.593-97.276 26.699-138.74-2.26-41.464-28.96-61.201-80.187-49.888-129.48C20.581 48.868 60.681 11.374 110.623 3.394c49.942-7.98 99.73 15.152 125.84 58.466l-14.048 8.468c-22.658-37.588-65.864-57.661-109.203-50.736-43.34 6.925-78.14 39.462-87.957 82.239-9.818 42.777 7.31 87.232 43.292 112.363 35.983 25.13 83.617 25.906 120.399 1.961z" fill-rule="evenodd"/><path fill="#fff" d="M203.449 46.284c0-6.21 5.018-11.243 11.207-11.243a11.19 11.19 0 0 1 7.925 3.293 11.261 11.261 0 0 1 3.283 7.95c0 6.21-5.018 11.243-11.208 11.243s-11.207-5.034-11.207-11.243z" fill-rule="evenodd"/><path stroke="#fdcd2f" stroke-width="8" stroke-linejoin="round" stroke-linecap="butt" d="M203.449 46.284c0-6.21 5.018-11.243 11.207-11.243a11.19 11.19 0 0 1 7.925 3.293 11.261 11.261 0 0 1 3.283 7.95c0 6.21-5.018 11.243-11.208 11.243s-11.207-5.034-11.207-11.243z"/><path fill="#fff" d="M4.577 103.54c0-6.209 5.018-11.243 11.208-11.243a11.19 11.19 0 0 1 7.925 3.293 11.261 11.261 0 0 1 3.283 7.95c0 6.21-5.018 11.243-11.208 11.243S4.577 109.75 4.577 103.54z" fill-rule="evenodd"/><path stroke="#fc441d" stroke-width="8" stroke-linejoin="round" stroke-linecap="butt" d="M4.577 103.54c0-6.209 5.018-11.243 11.208-11.243a11.19 11.19 0 0 1 7.925 3.293 11.261 11.261 0 0 1 3.283 7.95c0 6.21-5.018 11.243-11.208 11.243S4.577 109.75 4.577 103.54z"/><path fill="#fff" d="M184.33 220.369c0-6.21 5.018-11.243 11.208-11.243a11.19 11.19 0 0 1 7.925 3.293 11.261 11.261 0 0 1 3.283 7.95c0 6.21-5.018 11.243-11.208 11.243s-11.207-5.034-11.207-11.243z" fill-rule="evenodd"/><path stroke="#fc521e" stroke-width="8" stroke-linejoin="round" stroke-linecap="butt" d="M184.33 220.369c0-6.21 5.018-11.243 11.208-11.243a11.19 11.19 0 0 1 7.925 3.293 11.261 11.261 0 0 1 3.283 7.95c0 6.21-5.018 11.243-11.208 11.243s-11.207-5.034-11.207-11.243z"/><path d="M204.154 159.324h341.04v71.937h-341.04z"/><path fill="#000" d="M232.857 183.761q2.828 2.516 5.219 6l-3.75 2.64q-2.047-3.296-4.719-6.14l3.25-2.5zm-10.578 9.907q-3.156 0-3.156-3.157v-6.156h3.203q2.828.344.781 1.813v3.421q0 .235.484.235h4.297q.375.156.219.125l.172-2.563 4.14.578-.328 2.875q-.343 2.829-3.422 2.829h-6.39zm2.797-11.344q2.343 1.656 4.422 3.75l-2.782 2.797q-1.906-1.907-4.28-3.938l2.64-2.61zm-11.672-2.406h23.5v3.468h-23.5v-3.468zm9.5-13.657v-3.125h3.203q2.844.344.766 1.828v1.297h8.859v3.453h-8.86v.844h7.688v8.922h-18.812v-8.922h7.156v-.844h-8.594v-3.453h8.594zm-7.36 5.61q2.47 1.843-.265 2.109-1 1.656-2.063 3.313v17.28h-3.984v-12.437l-2.078 1.875-2.422-3.937q4.516-3.813 8.11-10.422l2.702 2.219zm3.282 13.734q2.843 1.25.062 2.078-1.062 2.36-2.984 5.89l-3.547-2.359q2.156-3.25 3.734-7.156l2.735 1.547zm2-11.594h-1.11v2h1.11v-2zm-5.094-9.406q1.953 2.266-.672 2.016-3.062 4.437-7.578 8.172l-2.063-3.985q4.094-3.406 7.157-8.344l3.156 2.141zm13.625 9.406v2h1.219v-2h-1.219zm-4.953 2h1.36v-2h-1.36v2zm34.55 4.438v-7.094h-7.094v7.094h7.094zm0-16.922h3.203q2.844.344.766 1.828v4.156h11.328V185.2h-3.969v-.906h-7.36v9.765h-3.968v-9.765h-7.094v1.687h-3.969v-16.469h11.063v-5.984zm11.328 16.922v-7.094h-7.36v7.094h7.36zm27.847-16.141h3.61q3.015.578.75 2.094v4.937q.89 12.063 13.515 17.516l-2.156 4.5q-9.86-4.281-12.985-12.86-2.25 8.016-12.703 12.844l-2.765-4.078q12.734-4.953 12.734-17.5v-7.453zm39.691 22v-14.765h-10.282v-4.25h24.938v4.25h-10.281v14.765h12.75v4.235h-29.75v-4.235h12.625zm34.956-20.438h7.547v3.454h-4.36l-.125 1.484h5.782v3.469h-6.141l.062-.234q2.97 1 6.188 2.937l-1.984 3.594q-2.813-1.969-5.594-3.375-2.016 3.094-8.235 4.765l-1.375-3.765q6.688-1.906 7.094-3.922h-6.484v-3.469h6.969l.125-1.484h-1.22q-.75 1.203-2.687 2.953l-2.859-2.281q3.156-3.297 4.594-7.36l3.25.688q1.672 1.61-.25 1.906l-.297.64zm12.234 2.938v5.516h5v-5.516h-5zm-14.265 10.469h19.468v14.266h-3.968v-.922h-11.516v1.562h-3.984v-14.906zm3.984 3.453v1.484h11.516v-1.484h-11.516zm0 4.953v1.485h11.516v-1.485h-11.516zm6.687-22.344h12.188v13.485h-3.594v-1.047h-5v1.437h-3.594V165.34zm35.191.204q2.906 3.203 5.235 7.125l-3.641 2.093-1.156-1.765-10.641 1.078q-.234 1.719-1.89.125l-1.032-4.172h3.906l2.657-7.156 4.03.968q1.657 1.657-.312 1.922l-2.312 4.063 3.578-.235-1.656-2.218 3.234-1.828zm-6.344 12.375v.828h4.735v-.828h-4.735zm0 4.687v.828h4.735v-.828h-4.735zm8.72-8.547v17.094q0 2.781-2.766 2.781h-2.813l-.594-3.86h2.485q0 .298-.297.298v-3.078h-4.735v6.765h-3.984v-20h12.703zm5.077 5.078q2.828.375.782 1.828v2.047l7.03-2.593 1.657 2.828q.344 2.422-1.531 1.359l-7.156 1.875v3.11q0 .234.093.234h5.203q.313 0 .375-.344l.5-2.89 4.094.765-.656 3.672q-.484 2.64-2.875 2.64h-7.688q-3.03 0-3.03-2.906v-11.625h3.202zm8.953-9.843q.344 2.484-1.53 1.375l-6.641 1.875v2.593q0 .235.093.235h5.203q.172 0 .22-.438l.359-3.078 4.062.781-.312 3.485q-.313 3.093-3.157 3.093h-7.422q-3.03 0-3.03-2.906v-12.265h3.202q2.828.343.782 1.812v3.172l6.203-2.688 1.968 2.954zm26.629.734q0-3.453-.172-7.11 2.28.61 4.734.797-.719 2.782-.594 6.313h7.219q-.437 1.969-.703 4.656l-.906 14.453q-.328 2.516-1.844 3.047-1.516.547-4.516 1.219-.703-2.234-1.828-4.297 3.766-.203 4.078-.266.313-.062.39-1.25l.86-14.093h-2.89q-.11 5.265-1.844 10.609t-6.578 10.188q-1.125-1.516-4.797-2.735 4.234-2.219 6.61-6.86 2.39-4.655 2.624-11.202-1.734 0-4.922.156v-3.781q3.188.156 5.079.156zm-12.75 1.828q0-5.547-.188-8.328h4.344q-.188 2.781-.188 8.328 1.766 0 4.172-.172v3.797q-2.406-.172-4.172-.172v13.64q0 1.798.172 5.376h-4.312q.172-3.578.172-5.375v-13.64q-1.891 0-4.172.187v-3.828q2.28.187 4.172.187zm12.093 5.25q-1.406 1.86-3.297 8.078-1.906-.781-3.859-.984 2.11-5.578 2.469-8.172 1.781.656 4.687 1.078zm13.36-1.406q2.312 4.937 3.03 7.672-2.03.375-3.733 1.422-1.016-3.563-2.75-7.454 1.812-.609 3.453-1.64zm30.565-2.422q-2.343-1.266-4.718-5.375-2.329 3.828-4.485 5.375h9.203zm9.235 4.219q-2.86-.672-5.578-2.203v2.234h-16.079v-1.969q-2.53 1.766-6.375 2.906l-1.656-4.437q9.547-2.594 14.078-10.953l3.188.453q2.781.344.984 1.64 3.64 5.485 13.281 7.954l-1.843 4.375zm-3.438 16.672q-1.39-1.891-2.531-2.938l-18.328 2.016q-.906.906-2.078.015l-1.22-4.312 5.813-.281 2.907-5.282h-8.907v-4.25h28.063v4.25h-14.344l-3.031 5.032 7.766-.563q-.5-.469-3.329-2.594l3.547-2.375q6.719 5.047 9.578 8.844l-3.906 2.438z"/><defs><linearGradient id="f" gradientUnits="userSpaceOnUse" gradientTransform="scale(9.44084)" spreadMethod="pad" x1="9.072" y1="18.058" x2="18.512" y2="18.058"><stop offset="0" stop-color="red"/><stop offset="1" stop-color="#ff0"/></linearGradient></defs><path fill="url(#f)" d="M85.643 125.918c0-24.612 19.952-44.564 44.565-44.564a44.565 44.565 0 0 1 44.564 44.564c0 24.613-19.952 44.565-44.564 44.565-24.613 0-44.565-19.952-44.565-44.565zm13.948 0c0 16.91 13.707 30.617 30.617 30.617 16.909 0 30.616-13.707 30.616-30.617 0-16.909-13.707-30.616-30.616-30.616-16.91 0-30.617 13.707-30.617 30.616z" fill-rule="evenodd"/><path fill="#fff" d="M83.488 135.851c0-6.21 5.018-11.243 11.208-11.243a11.19 11.19 0 0 1 7.925 3.293 11.261 11.261 0 0 1 3.282 7.95c0 6.21-5.018 11.243-11.207 11.243-6.19 0-11.208-5.034-11.208-11.243z" fill-rule="evenodd"/><path stroke="#fc181b" stroke-width="8" stroke-linejoin="round" stroke-linecap="butt" d="M83.488 135.851c0-6.21 5.018-11.243 11.208-11.243a11.19 11.19 0 0 1 7.925 3.293 11.261 11.261 0 0 1 3.282 7.95c0 6.21-5.018 11.243-11.207 11.243-6.19 0-11.208-5.034-11.208-11.243z"/></g></svg>